<svg xmlns="http://www.w3.org/2000/svg" width="640" height="180" viewBox="0 0 640 180">
  <circle cx="80" cy="90" r="70" fill="#F7931A"/>
  <g fill="#FFFFFF">
    <path d="M108.7 78.4c1.4-9.6-5.9-14.8-15.9-18.2l3.3-13-7.9-2-3.2 12.7c-2.1-.5-4.2-1-6.4-1.5l3.2-12.8-7.9-2-3.3 13c-1.7-.4-3.4-.8-5.1-1.2v0l-10.9-2.7-2.1 8.5s5.9 1.3 5.7 1.4c3.2.8 3.8 2.9 3.7 4.6l-3.7 15c.2.1.5.1.9.3-.3-.1-.6-.1-.9-.2l-5.2 20.8c-.4 1-1.4 2.4-3.7 1.9.1.1-5.7-1.4-5.7-1.4l-3.9 9.1 10.3 2.6c1.9.5 3.8 1 5.6 1.5l-3.3 13.2 7.9 2 3.3-13c2.2.6 4.3 1.1 6.4 1.6l-3.2 12.9 7.9 2 3.3-13.2c13.5 2.5 23.6 1.5 27.9-10.7 3.5-9.8-.2-15.5-7.2-19.2 5.1-1.2 9-4.6 10-11.6zm-17.9 25.4c-2.4 9.8-19 4.5-24.3 3.2l4.4-17.5c5.4 1.3 22.5 4 19.9 14.3zm2.5-25.5c-2.2 8.9-16 4.4-20.5 3.3l4-16c4.4 1.1 18.9 3.2 16.5 12.7z"/>
  </g>
  <text x="175" y="118" font-family="Helvetica, Arial, sans-serif" font-size="96" font-weight="700" font-style="italic" fill="#4D4D4D" letter-spacing="-3">bitcoin</text>
</svg>
